<svg width="32" height="40" viewBox="0 0 32 40" fill="none" xmlns="http://www.w3.org/2000/svg">
<path d="M31.2593 33.1072C31.1704 27.671 25.6122 26.0649 21.5538 24.8921C21.0803 24.7553 20.6249 24.6237 20.1982 24.4923V22.2497C21.0279 21.7296 21.7549 21.0603 22.3414 20.2796H24.8136C26.0233 20.2796 27.0076 19.2953 27.0076 18.0855V15.4296C27.1543 15.0877 27.2358 14.7115 27.2358 14.3164V13.4904C27.2358 13.0957 27.1543 12.7197 27.0076 12.378V11.0079C27.0076 4.93814 22.0697 0 16 0C9.93156 0 4.99458 4.93814 4.99458 11.0079V12.3389C4.99458 12.3493 4.99576 12.3594 4.99615 12.3698C4.84724 12.7137 4.76427 13.0925 4.76427 13.4904V14.3165C4.76427 15.878 6.03365 17.1483 7.59389 17.1483H8.23952C8.68671 19.2927 10.0032 21.1216 11.8019 22.2493V24.4923C11.3751 24.6237 10.9198 24.7553 10.4462 24.8921C6.38779 26.0649 0.829646 27.671 0.74074 33.1072C0.740662 33.1115 0.740662 33.1157 0.740662 33.12V39.2187C0.740662 39.6502 1.09051 40 1.52191 40H3.83817C4.26958 40 4.61943 39.6502 4.61943 39.2187C4.61943 38.7873 4.26958 38.4375 3.83817 38.4375H2.30309V33.1265C2.33598 31.2298 3.20723 29.808 5.04482 28.6521C6.2574 27.8894 7.73983 27.346 9.20109 26.8914L11.0887 30.569C11.2991 30.979 11.8377 31.1182 12.2206 30.86L13.0622 30.2922L13.7848 33.0081L12.5467 38.4374H10.8536C10.4222 38.4374 10.0723 38.7872 10.0723 39.2187C10.0723 39.6502 10.4222 39.9999 10.8536 39.9999H30.4781C30.9095 39.9999 31.2594 39.6502 31.2594 39.2187V33.1199C31.2594 33.1157 31.2594 33.1115 31.2593 33.1072ZM21.12 26.3932C21.1715 26.408 21.2239 26.4232 21.2757 26.4382L19.9252 29.0721L17.3978 27.3678L19.5393 25.9234C20.0368 26.0799 20.5658 26.233 21.12 26.3932ZM16.0006 28.3103L17.5671 29.3667L16.81 32.2125H15.19L14.4331 29.3675L16.0006 28.3103ZM16.0004 26.4257L13.3643 24.6481V23.0034C14.1894 23.2952 15.0762 23.4552 15.9999 23.4552C16.9236 23.4552 17.8106 23.2957 18.6356 23.0039V24.6481L16.0004 26.4257ZM22.3648 11.1508C22.3541 11.144 22.3435 11.1372 22.3328 11.1304C20.7297 10.11 19.3452 9.22863 17.1758 9.84934C17.1557 9.85512 17.1356 9.86168 17.116 9.86902C16.6561 10.0418 16.2379 10.2028 15.8334 10.3585C13.3628 11.3095 12.0139 11.8289 9.63515 11.762V11.1364C9.63515 7.62667 12.4904 4.77135 15.9999 4.77135C19.5095 4.77135 22.3647 7.62667 22.3647 11.1364V11.1508H22.3648ZM25.4451 18.0855C25.4451 18.4338 25.1619 18.7171 24.8136 18.7171H23.2567C23.4765 18.2187 23.6468 17.6938 23.7606 17.1483H24.4062C24.773 17.1483 25.1233 17.0773 25.4452 16.9496V18.0855H25.4451ZM25.6733 14.3164C25.6733 15.0163 25.1049 15.5858 24.4061 15.5858H23.9266C23.9268 15.5664 23.9274 12.2232 23.9274 12.2232H24.4062C25.1049 12.2232 25.6733 12.7916 25.6733 13.4904V14.3164H25.6733ZM7.59389 15.5858C6.89522 15.5858 6.32678 15.0164 6.32678 14.3165V13.4904C6.32678 12.7917 6.89514 12.2233 7.59389 12.2233H8.07272C8.07272 12.2233 8.07335 15.5665 8.0735 15.5858H7.59389ZM8.08733 10.6607H7.59381C7.22858 10.6607 6.87975 10.731 6.55897 10.8575C6.63967 5.71846 10.8434 1.56251 16 1.56251C21.1581 1.56251 25.363 5.71893 25.4432 10.8584C25.1219 10.7313 24.7722 10.6607 24.4061 10.6607H23.9126C23.6658 6.51003 20.2114 3.20884 16 3.20884C11.7886 3.20884 8.33421 6.5101 8.08733 10.6607ZM9.68218 16.2878C9.6821 16.287 9.68195 16.2862 9.68187 16.2855C9.65226 16.0368 9.63523 15.7843 9.63523 15.5278V13.3244C12.3081 13.3896 13.9026 12.7761 16.3947 11.8168C16.7872 11.6657 17.1929 11.5095 17.6349 11.3433C19.1107 10.9314 19.9598 11.4721 21.4937 12.4486C21.7599 12.618 22.0518 12.8037 22.3648 12.9944V15.5278C22.3648 16.6896 22.0504 17.7787 21.5046 18.7172H16C15.5686 18.7172 15.2188 19.0669 15.2188 19.4984C15.2188 19.9299 15.5686 20.2797 16 20.2797H20.2285C19.1033 21.2821 17.6219 21.8928 16 21.8928C12.7477 21.8927 10.0591 19.4402 9.68218 16.2878ZM12.0767 29.0722L10.7247 26.4381C10.7764 26.4232 10.8286 26.408 10.88 26.3932C11.4342 26.233 11.9633 26.0799 12.4609 25.9233L14.6033 27.368L12.0767 29.0722ZM14.1494 38.4375L15.2126 33.775H16.7877L17.8525 38.4375H14.1494ZM29.6969 38.4375H19.4553L18.2153 33.008L18.9382 30.2911L19.7818 30.86C20.1648 31.1182 20.7035 30.9789 20.9138 30.5688L22.7993 26.8915C24.2604 27.3461 25.7428 27.8895 26.9553 28.6521C28.7928 29.8079 29.6641 31.2298 29.697 33.1265V38.4375H29.6969Z" fill="#FFB800"/>
<path d="M26.6117 34.531H22.6744C22.243 34.531 21.8932 34.8808 21.8932 35.3123C21.8932 35.7437 22.243 36.0935 22.6744 36.0935H26.6117C27.0431 36.0935 27.393 35.7437 27.393 35.3123C27.393 34.8808 27.0432 34.531 26.6117 34.531Z" fill="#FFB800"/>
<path d="M7.34595 38.4375C6.91454 38.4375 6.5647 38.7873 6.5647 39.2188C6.5647 39.6502 6.91454 40 7.34595 40H7.34813C7.77954 40 8.12821 39.6502 8.12821 39.2188C8.12821 38.7873 7.77735 38.4375 7.34595 38.4375Z" fill="#FFB800"/>
</svg>
